<svg width="121" height="113" viewBox="0 0 121 113" xmlns="http://www.w3.org/2000/svg" xmlns:sketch="http://www.bohemiancoding.com/sketch/ns"><title>search</title><desc>Created with Sketch.</desc><path d="M73.311 76.262l38.849 35.095c1.952 1.762 4.994 1.607 6.759-.347l.799-.885c1.763-1.954 1.609-4.996-.345-6.757l-38.688-34.951m-35.429-60.759c20.451 0 37.031 16.58 37.031 37.032 0 20.451-16.58 37.03-37.031 37.03-20.454 0-37.032-16.579-37.032-37.03.001-20.453 16.58-37.032 37.032-37.032m-45.256 37.031c0 24.68 20.006 44.686 44.689 44.686 24.681 0 44.685-20.006 44.685-44.686 0-24.683-20.004-44.689-44.685-44.689-24.683.001-44.689 20.008-44.689 44.689" sketch:type="MSShapeGroup"/></svg>