<svg width="121" height="113" viewBox="0 0 121 113" xmlns="http://www.w3.org/2000/svg" xmlns:sketch="http://www.bohemiancoding.com/sketch/ns"><title>search</title><path d="M74.855 77.657l37.305 33.7c1.952 1.762 4.994 1.607 6.759-.347l.799-.885c1.763-1.954 1.609-4.996-.345-6.757l-37.504-33.882c4.741-7.095 7.505-15.623 7.505-24.797 0-24.683-20.004-44.689-44.685-44.689-24.683.001-44.689 20.008-44.689 44.689 0 24.68 20.006 44.686 44.689 44.686 11.628 0 22.217-4.44 30.166-11.718zm-29.599-69.999c20.451 0 37.031 16.58 37.031 37.032 0 20.451-16.58 37.03-37.031 37.03-20.454 0-37.032-16.579-37.032-37.03.001-20.453 16.58-37.032 37.032-37.032z" fill="#000" sketch:type="MSShapeGroup"/></svg>